<mxfile host="Electron" agent="Mozilla/5.0 (X11; Linux x86_64) AppleWebKit/537.36 (KHTML, like Gecko) draw.io/26.2.2 Chrome/134.0.6998.178 Electron/35.1.2 Safari/537.36" version="26.2.2">
  <diagram name="PÃ¡gina-1" id="tbhhrolYnf2YLyF_AGn1">
    <mxGraphModel dx="1785" dy="1094" grid="1" gridSize="10" guides="1" tooltips="1" connect="1" arrows="1" fold="1" page="1" pageScale="1" pageWidth="827" pageHeight="1169" math="0" shadow="0">
      <root>
        <mxCell id="0" />
        <mxCell id="1" parent="0" />
        <mxCell id="gUQwB867zqCJYkILIy9S-1" value="Day 04 - Increment an int represented in array of digits" style="text;html=1;align=left;verticalAlign=middle;whiteSpace=wrap;rounded=0;fontStyle=1" parent="1" vertex="1">
          <mxGeometry x="40" y="40" width="760" height="30" as="geometry" />
        </mxCell>
        <mxCell id="gUQwB867zqCJYkILIy9S-21" style="edgeStyle=orthogonalEdgeStyle;rounded=0;orthogonalLoop=1;jettySize=auto;html=1;exitX=0.5;exitY=1;exitDx=0;exitDy=0;exitPerimeter=0;entryX=0.5;entryY=0;entryDx=0;entryDy=0;" parent="1" source="gUQwB867zqCJYkILIy9S-3" target="UsSwRiLouIbbxh6A6EXb-1" edge="1">
          <mxGeometry relative="1" as="geometry">
            <mxPoint x="110" y="166" as="targetPoint" />
          </mxGeometry>
        </mxCell>
        <mxCell id="gUQwB867zqCJYkILIy9S-3" value="Start" style="strokeWidth=2;html=1;shape=mxgraph.flowchart.terminator;whiteSpace=wrap;" parent="1" vertex="1">
          <mxGeometry x="60" y="80" width="100" height="60" as="geometry" />
        </mxCell>
        <mxCell id="UsSwRiLouIbbxh6A6EXb-3" style="edgeStyle=orthogonalEdgeStyle;rounded=0;orthogonalLoop=1;jettySize=auto;html=1;exitX=0.5;exitY=1;exitDx=0;exitDy=0;entryX=0.5;entryY=0;entryDx=0;entryDy=0;" parent="1" source="UsSwRiLouIbbxh6A6EXb-1" target="UsSwRiLouIbbxh6A6EXb-2" edge="1">
          <mxGeometry relative="1" as="geometry" />
        </mxCell>
        <mxCell id="UsSwRiLouIbbxh6A6EXb-1" value="&lt;div&gt;&lt;span style=&quot;background-color: transparent; color: light-dark(rgb(0, 0, 0), rgb(255, 255, 255));&quot;&gt;&lt;br&gt;&lt;/span&gt;&lt;/div&gt;&lt;div&gt;&lt;span style=&quot;background-color: transparent; color: light-dark(rgb(0, 0, 0), rgb(255, 255, 255));&quot;&gt;s&lt;/span&gt;&lt;/div&gt;&lt;div&gt;digits&lt;/div&gt;&lt;div&gt;finished&lt;/div&gt;" style="shape=internalStorage;whiteSpace=wrap;html=1;dx=15;dy=15;rounded=1;arcSize=8;strokeWidth=2;" parent="1" vertex="1">
          <mxGeometry x="70" y="170" width="80" height="60" as="geometry" />
        </mxCell>
        <mxCell id="UsSwRiLouIbbxh6A6EXb-5" style="edgeStyle=orthogonalEdgeStyle;rounded=0;orthogonalLoop=1;jettySize=auto;html=1;exitX=0.5;exitY=1;exitDx=0;exitDy=0;entryX=0.5;entryY=0;entryDx=0;entryDy=0;" parent="1" source="UsSwRiLouIbbxh6A6EXb-2" target="UsSwRiLouIbbxh6A6EXb-4" edge="1">
          <mxGeometry relative="1" as="geometry" />
        </mxCell>
        <mxCell id="UsSwRiLouIbbxh6A6EXb-2" value="finished = false" style="rounded=1;whiteSpace=wrap;html=1;absoluteArcSize=1;arcSize=14;strokeWidth=2;" parent="1" vertex="1">
          <mxGeometry x="60" y="260" width="100" height="40" as="geometry" />
        </mxCell>
        <mxCell id="UsSwRiLouIbbxh6A6EXb-78" style="edgeStyle=orthogonalEdgeStyle;rounded=0;orthogonalLoop=1;jettySize=auto;html=1;exitX=0.5;exitY=1;exitDx=0;exitDy=0;entryX=0.5;entryY=0;entryDx=0;entryDy=0;" parent="1" source="UsSwRiLouIbbxh6A6EXb-4" target="UsSwRiLouIbbxh6A6EXb-141" edge="1">
          <mxGeometry relative="1" as="geometry">
            <mxPoint x="110.03571428571422" y="420" as="targetPoint" />
          </mxGeometry>
        </mxCell>
        <mxCell id="UsSwRiLouIbbxh6A6EXb-4" value="&lt;div&gt;&lt;br&gt;&lt;/div&gt;s" style="html=1;strokeWidth=2;shape=manualInput;whiteSpace=wrap;rounded=1;size=26;arcSize=11;" parent="1" vertex="1">
          <mxGeometry x="60" y="330" width="100" height="60" as="geometry" />
        </mxCell>
        <mxCell id="UsSwRiLouIbbxh6A6EXb-143" style="edgeStyle=orthogonalEdgeStyle;rounded=0;orthogonalLoop=1;jettySize=auto;html=1;exitX=0.5;exitY=1;exitDx=0;exitDy=0;entryX=0.5;entryY=0;entryDx=0;entryDy=0;" parent="1" source="UsSwRiLouIbbxh6A6EXb-141" target="UsSwRiLouIbbxh6A6EXb-142" edge="1">
          <mxGeometry relative="1" as="geometry" />
        </mxCell>
        <mxCell id="UsSwRiLouIbbxh6A6EXb-141" value="digits = s.split(&quot;&quot;)" style="rounded=1;whiteSpace=wrap;html=1;absoluteArcSize=1;arcSize=14;strokeWidth=2;" parent="1" vertex="1">
          <mxGeometry x="60" y="420" width="100" height="40" as="geometry" />
        </mxCell>
        <mxCell id="UsSwRiLouIbbxh6A6EXb-142" value="i digits.length-1;&lt;div&gt;&lt;span style=&quot;background-color: transparent; color: light-dark(rgb(0, 0, 0), rgb(255, 255, 255));&quot;&gt;0; -1&lt;/span&gt;&lt;/div&gt;" style="shape=hexagon;perimeter=hexagonPerimeter2;whiteSpace=wrap;html=1;fixedSize=1;" parent="1" vertex="1">
          <mxGeometry x="60" y="490" width="100" height="40" as="geometry" />
        </mxCell>
        <mxCell id="UsSwRiLouIbbxh6A6EXb-147" value="" style="edgeStyle=orthogonalEdgeStyle;rounded=0;orthogonalLoop=1;jettySize=auto;html=1;" parent="1" source="UsSwRiLouIbbxh6A6EXb-144" target="UsSwRiLouIbbxh6A6EXb-146" edge="1">
          <mxGeometry relative="1" as="geometry" />
        </mxCell>
        <mxCell id="UsSwRiLouIbbxh6A6EXb-148" value="Yes" style="edgeLabel;html=1;align=center;verticalAlign=middle;resizable=0;points=[];" parent="UsSwRiLouIbbxh6A6EXb-147" vertex="1" connectable="0">
          <mxGeometry x="-0.5256" y="1" relative="1" as="geometry">
            <mxPoint x="2" as="offset" />
          </mxGeometry>
        </mxCell>
        <mxCell id="CS0bUPM99QJZclOzySXH-2" style="edgeStyle=orthogonalEdgeStyle;rounded=0;orthogonalLoop=1;jettySize=auto;html=1;exitX=0.5;exitY=1;exitDx=0;exitDy=0;exitPerimeter=0;entryX=0.5;entryY=0;entryDx=0;entryDy=0;" parent="1" source="UsSwRiLouIbbxh6A6EXb-144" target="CS0bUPM99QJZclOzySXH-1" edge="1">
          <mxGeometry relative="1" as="geometry" />
        </mxCell>
        <mxCell id="UsSwRiLouIbbxh6A6EXb-144" value="digits[i] &amp;lt; 9" style="strokeWidth=2;html=1;shape=mxgraph.flowchart.decision;whiteSpace=wrap;" parent="1" vertex="1">
          <mxGeometry x="60" y="560" width="100" height="100" as="geometry" />
        </mxCell>
        <mxCell id="UsSwRiLouIbbxh6A6EXb-145" style="edgeStyle=orthogonalEdgeStyle;rounded=0;orthogonalLoop=1;jettySize=auto;html=1;exitX=0.5;exitY=1;exitDx=0;exitDy=0;entryX=0.5;entryY=0;entryDx=0;entryDy=0;entryPerimeter=0;" parent="1" source="UsSwRiLouIbbxh6A6EXb-142" target="UsSwRiLouIbbxh6A6EXb-144" edge="1">
          <mxGeometry relative="1" as="geometry" />
        </mxCell>
        <mxCell id="UsSwRiLouIbbxh6A6EXb-146" value="digits[i]++&lt;div&gt;finished = true&lt;/div&gt;" style="rounded=1;whiteSpace=wrap;html=1;absoluteArcSize=1;arcSize=14;strokeWidth=2;" parent="1" vertex="1">
          <mxGeometry x="197.75" y="590" width="100" height="40" as="geometry" />
        </mxCell>
        <mxCell id="Eagt0AEXQSqDIEZV9VaZ-2" style="edgeStyle=orthogonalEdgeStyle;rounded=0;orthogonalLoop=1;jettySize=auto;html=1;exitX=0;exitY=0.5;exitDx=0;exitDy=0;entryX=0;entryY=0.5;entryDx=0;entryDy=0;" edge="1" parent="1" source="CS0bUPM99QJZclOzySXH-1" target="UsSwRiLouIbbxh6A6EXb-142">
          <mxGeometry relative="1" as="geometry" />
        </mxCell>
        <mxCell id="CS0bUPM99QJZclOzySXH-1" value="digits[i] = 0" style="rounded=1;whiteSpace=wrap;html=1;absoluteArcSize=1;arcSize=14;strokeWidth=2;" parent="1" vertex="1">
          <mxGeometry x="60" y="690" width="100" height="40" as="geometry" />
        </mxCell>
        <mxCell id="Eagt0AEXQSqDIEZV9VaZ-1" value="" style="strokeWidth=2;html=1;shape=mxgraph.flowchart.start_2;whiteSpace=wrap;" vertex="1" parent="1">
          <mxGeometry x="90" y="740" width="40" height="40" as="geometry" />
        </mxCell>
        <mxCell id="Eagt0AEXQSqDIEZV9VaZ-3" style="edgeStyle=orthogonalEdgeStyle;rounded=0;orthogonalLoop=1;jettySize=auto;html=1;exitX=0.5;exitY=1;exitDx=0;exitDy=0;entryX=1;entryY=0.5;entryDx=0;entryDy=0;entryPerimeter=0;" edge="1" parent="1" source="UsSwRiLouIbbxh6A6EXb-146" target="Eagt0AEXQSqDIEZV9VaZ-1">
          <mxGeometry relative="1" as="geometry" />
        </mxCell>
        <mxCell id="Eagt0AEXQSqDIEZV9VaZ-4" style="edgeStyle=orthogonalEdgeStyle;rounded=0;orthogonalLoop=1;jettySize=auto;html=1;exitX=1;exitY=0.5;exitDx=0;exitDy=0;entryX=1;entryY=0.5;entryDx=0;entryDy=0;entryPerimeter=0;" edge="1" parent="1" source="UsSwRiLouIbbxh6A6EXb-142" target="Eagt0AEXQSqDIEZV9VaZ-1">
          <mxGeometry relative="1" as="geometry">
            <Array as="points">
              <mxPoint x="318" y="510" />
              <mxPoint x="318" y="760" />
            </Array>
          </mxGeometry>
        </mxCell>
        <mxCell id="Eagt0AEXQSqDIEZV9VaZ-8" style="edgeStyle=orthogonalEdgeStyle;rounded=0;orthogonalLoop=1;jettySize=auto;html=1;exitX=1;exitY=0.5;exitDx=0;exitDy=0;exitPerimeter=0;entryX=0;entryY=0.5;entryDx=0;entryDy=0;" edge="1" parent="1" source="Eagt0AEXQSqDIEZV9VaZ-5" target="Eagt0AEXQSqDIEZV9VaZ-6">
          <mxGeometry relative="1" as="geometry" />
        </mxCell>
        <mxCell id="Eagt0AEXQSqDIEZV9VaZ-5" value="! finished" style="strokeWidth=2;html=1;shape=mxgraph.flowchart.decision;whiteSpace=wrap;" vertex="1" parent="1">
          <mxGeometry x="60" y="810" width="100" height="100" as="geometry" />
        </mxCell>
        <mxCell id="Eagt0AEXQSqDIEZV9VaZ-6" value="digits.unshift(1)" style="rounded=1;whiteSpace=wrap;html=1;absoluteArcSize=1;arcSize=14;strokeWidth=2;" vertex="1" parent="1">
          <mxGeometry x="187.75" y="840" width="100" height="40" as="geometry" />
        </mxCell>
        <mxCell id="Eagt0AEXQSqDIEZV9VaZ-7" style="edgeStyle=orthogonalEdgeStyle;rounded=0;orthogonalLoop=1;jettySize=auto;html=1;exitX=0.5;exitY=1;exitDx=0;exitDy=0;exitPerimeter=0;entryX=0.5;entryY=0;entryDx=0;entryDy=0;entryPerimeter=0;" edge="1" parent="1" source="Eagt0AEXQSqDIEZV9VaZ-1" target="Eagt0AEXQSqDIEZV9VaZ-5">
          <mxGeometry relative="1" as="geometry" />
        </mxCell>
        <mxCell id="Eagt0AEXQSqDIEZV9VaZ-13" style="edgeStyle=orthogonalEdgeStyle;rounded=0;orthogonalLoop=1;jettySize=auto;html=1;exitX=0.5;exitY=1;exitDx=0;exitDy=0;exitPerimeter=0;" edge="1" parent="1" source="Eagt0AEXQSqDIEZV9VaZ-9" target="Eagt0AEXQSqDIEZV9VaZ-12">
          <mxGeometry relative="1" as="geometry" />
        </mxCell>
        <mxCell id="Eagt0AEXQSqDIEZV9VaZ-9" value="" style="strokeWidth=2;html=1;shape=mxgraph.flowchart.start_2;whiteSpace=wrap;" vertex="1" parent="1">
          <mxGeometry x="90" y="940" width="40" height="40" as="geometry" />
        </mxCell>
        <mxCell id="Eagt0AEXQSqDIEZV9VaZ-10" style="edgeStyle=orthogonalEdgeStyle;rounded=0;orthogonalLoop=1;jettySize=auto;html=1;exitX=0.5;exitY=1;exitDx=0;exitDy=0;entryX=1;entryY=0.5;entryDx=0;entryDy=0;entryPerimeter=0;" edge="1" parent="1" source="Eagt0AEXQSqDIEZV9VaZ-6" target="Eagt0AEXQSqDIEZV9VaZ-9">
          <mxGeometry relative="1" as="geometry" />
        </mxCell>
        <mxCell id="Eagt0AEXQSqDIEZV9VaZ-11" style="edgeStyle=orthogonalEdgeStyle;rounded=0;orthogonalLoop=1;jettySize=auto;html=1;exitX=0.5;exitY=1;exitDx=0;exitDy=0;exitPerimeter=0;entryX=0.5;entryY=0;entryDx=0;entryDy=0;entryPerimeter=0;" edge="1" parent="1" source="Eagt0AEXQSqDIEZV9VaZ-5" target="Eagt0AEXQSqDIEZV9VaZ-9">
          <mxGeometry relative="1" as="geometry" />
        </mxCell>
        <mxCell id="Eagt0AEXQSqDIEZV9VaZ-12" value="digits" style="strokeWidth=2;html=1;shape=mxgraph.flowchart.display;whiteSpace=wrap;" vertex="1" parent="1">
          <mxGeometry x="60" y="1010" width="100" height="60" as="geometry" />
        </mxCell>
        <mxCell id="Eagt0AEXQSqDIEZV9VaZ-14" value="Stop" style="strokeWidth=2;html=1;shape=mxgraph.flowchart.terminator;whiteSpace=wrap;" vertex="1" parent="1">
          <mxGeometry x="60.000000000000114" y="1099" width="100" height="60" as="geometry" />
        </mxCell>
        <mxCell id="Eagt0AEXQSqDIEZV9VaZ-15" style="edgeStyle=orthogonalEdgeStyle;rounded=0;orthogonalLoop=1;jettySize=auto;html=1;exitX=0.5;exitY=1;exitDx=0;exitDy=0;exitPerimeter=0;entryX=0.5;entryY=0;entryDx=0;entryDy=0;entryPerimeter=0;" edge="1" parent="1" source="Eagt0AEXQSqDIEZV9VaZ-12" target="Eagt0AEXQSqDIEZV9VaZ-14">
          <mxGeometry relative="1" as="geometry" />
        </mxCell>
      </root>
    </mxGraphModel>
  </diagram>
</mxfile>
